# xmcd CD database file
#
# Track frame offsets:
#	150
#	19461
#	40512
#	57289
#	81755
#	99986
#	122491
#	140792
#	161933
#	180568
#
# Disc length: 2609 seconds
#
# Revision: 4
# Processed by: cddbd v1.5.2PL0 Copyright (c) Steve Scherf et al.
# Submitted via: CDex 1.51
#
DISCID=810a2f0a
DTITLE=LessThanAMinute - A MINUTE AGO
DYEAR=2009
DGENRE=Jazz
TTITLE0=CLOSER TO THE LIGHT
TTITLE1=TRAVELING TO ISTRIA
TTITLE2=NOBODY KNOWS
TTITLE3=SOMETHING WRONG WITH ME
TTITLE4=TJESHIMO SE SATIMA
TTITLE5=LET YOU KNOW
TTITLE6=DUMB BLIND FROZEN
TTITLE7=HART IS WHERE IT HURTS THE MOST
TTITLE8=FILDJAN
TTITLE9=TRY TO BELIEVE
EXTD=YEAR: 2009
EXTT0=
EXTT1=
EXTT2=
EXTT3=
EXTT4=
EXTT5=
EXTT6=
EXTT7=
EXTT8=
EXTT9=
PLAYORDER=
